PathFileType	4	(X/Y/Z)	Patient5_TMGait_0pt45_1_right_10.trc.trc
DataRate	CameraRate	NumFrames	NumMarkers	Units	OrigDataRate	OrigDataStartFrame	OrigNumFrames
58.333333333333	58.333333333333	4	32	mm	58.333333333333	18	       141
Frame#	Time	R.ASIS			L.ASIS			Chest			R.Shoulder			Neck			L.Shoulder			L.Elbow			L.Wrist			R.Elbow			R.Wrist			L.Thigh.Superior			L.Thigh.Lateral			L.Thigh.Inferior			L.Patella			L.Shank.Superior			L.Shank.Lateral			L.Shank.Inferior			L.Heel			L.Midfoot.Lateral			L.Midfoot.Superior			L.Toe			R.Thigh.Superior			R.Thigh.Lateral			R.Thigh.Inferior			R.Patella			R.Shank.Superior			R.Shank.Lateral			R.Shank.Inferior			R.Heel			R.Midfoot.Lateral			R.Midfoot.Superior			R.Toe			
		X1	Y1	Z1	X2	Y2	Z2	X3	Y3	Z3	X4	Y4	Z4	X5	Y5	Z5	X6	Y6	Z6	X7	Y7	Z7	X8	Y8	Z8	X9	Y9	Z9	X10	Y10	Z10	X11	Y11	Z11	X12	Y12	Z12	X13	Y13	Z13	X14	Y14	Z14	X15	Y15	Z15	X16	Y16	Z16	X17	Y17	Z17	X18	Y18	Z18	X19	Y19	Z19	X20	Y20	Z20	X21	Y21	Z21	X22	Y22	Z22	X23	Y23	Z23	X24	Y24	Z24	X25	Y25	Z25	X26	Y26	Z26	X27	Y27	Z27	X28	Y28	Z28	X29	Y29	Z29	X30	Y30	Z30	X31	Y31	Z31	X32	Y32	Z32	

18	16.611428571429	992.116735273700	995.878432376379	552.979351487866	991.036851147133	961.928037818399	312.773172276219	1032.136643668088	1444.915150414605	444.241622873972	913.636243103706	1505.985626213278	600.443479669652	907.113345692271	1563.285123399540	414.796814880891	992.260210981765	1507.392330623224	242.775340998141	979.793694232967	1178.786763499409	117.247060189114	1102.106774854194	920.435661022008	167.680086388084	820.017769429071	1187.413800208541	734.967463612134	1041.912520126022	1006.930686783618	682.837095163544	987.103865130313	733.389387743304	320.663703898608	901.310865130199	669.659110166887	283.349983673456	961.635964128057	605.033779589813	347.637146401808	937.781461801582	487.997401255935	357.841251959931	873.046801851749	392.253502097787	381.413275047306	798.580323351296	333.756750158238	305.468759201199	819.746092342151	278.667085335231	396.316047930594	648.556883592774	60.618256177872	400.139775410734	738.258585289884	33.500375623501	343.392663721459	835.592207125282	89.396861869065	390.016128309310	939.793990778787	43.740362770650	398.352936597932	1051.939902246951	780.029208905189	585.560729893299	990.027204588668	690.480077271294	646.958505054453	1079.382687417852	653.772022718521	574.548395316158	1104.366993226493	559.833727238364	613.811364953998	1076.870580953396	450.730179860933	580.790082704357	1007.769441495486	376.459313816118	659.018962091000	1075.612447569941	310.611658155888	583.893246093578	982.589062744189	76.366829595238	551.910026241505	1061.473270001110	43.956597060712	624.688387072560	1160.072496217255	122.522537644251	619.069567408436	1267.218793337014	90.241640951995	618.075407399968	
19	16.628571428571	991.232198171155	993.960933688313	554.618213790231	988.681050200204	961.519872387010	313.833313834976	1030.101730242660	1444.195278887471	446.875173032594	912.423141913020	1504.688823640174	604.008254982846	904.633829124804	1562.449963402341	418.569104464906	988.745628080439	1507.186117782664	245.726244017332	973.326897375590	1179.578465819211	118.039408914868	1093.092947132905	919.572865933301	166.663427649913	819.338589814633	1185.766950593434	738.016804724045	1041.008766505603	1005.523045518279	684.076183250303	983.047049418715	732.894746331949	320.982389062383	896.464842896272	669.863344222752	283.713546775015	956.541431780778	604.614744787571	347.634723380940	931.522855942933	487.661842776477	357.431613390779	866.460815946852	392.372883527090	381.128504988579	791.096828570900	334.430422881200	305.582015634337	812.827965668011	278.933241939438	396.085280538236	640.961096004882	61.266398979862	400.124771321030	730.532407557239	33.771755440042	343.393882666318	828.031150949994	89.481301021609	389.761769607122	931.981257469777	43.743688545879	398.262053589321	1049.217327691356	776.480946970963	587.029357286279	985.492297835799	686.826852277112	646.749808930806	1075.459315341510	649.913152327477	575.137929822939	1098.766259382861	555.328241912076	613.665804079738	1070.834572357758	446.884700562717	579.321720377601	1000.439838759822	372.522192808258	656.372372909534	1068.509099574443	306.683054081029	581.340253144135	973.779915543865	73.612817056043	546.881137766153	1051.916208670823	39.821991163526	619.902308035208	1151.383499530084	117.343214596568	615.420004980376	1258.152090877196	83.934985544131	614.655523344170	
20	16.645714285714	990.566180877820	991.744206045956	556.296699232894	986.412518556930	960.825393489773	315.015104193742	1028.253810290717	1443.256852691621	449.648154927201	911.429143068904	1503.152238233958	607.738903329238	902.302406100872	1561.381610014731	422.529479857827	985.315463743242	1506.782217495555	248.867980277710	967.008825039699	1180.247443914960	118.987821354756	1084.349537010857	918.685078523264	165.783130964949	818.868574280754	1183.891113229903	741.263066137649	1040.346326137065	1003.935123141691	685.538910570577	979.096370176882	732.160755693749	321.467331868100	891.710016073655	669.895443393378	284.209236960800	951.512157838729	604.040046115960	347.864624787943	925.271522586532	487.191507192076	357.295201373087	859.867693217780	392.374722885352	381.084685867660	783.675178269610	334.978569981846	305.922099368949	805.883421020287	279.081948266174	396.047457210824	633.350661015605	61.800730104139	400.167402921310	722.785082893657	34.013913380253	343.434026733048	820.411371851278	89.539242904281	389.583795921184	924.171856627865	43.729481284174	398.178770975132	1046.621706070430	772.627773146781	588.674281602418	980.887856499299	682.982151760035	646.610420421131	1071.445098464432	645.734475377999	575.859876789739	1092.940796510881	550.501102757407	613.582197204635	1064.486809936121	442.749810084267	577.885520597116	992.803208686148	368.418317195400	653.889315594291	1060.910381273810	302.474920850721	578.864966235650	964.155787839144	70.623540026096	542.272460076929	1041.637406782343	35.789373277553	615.535366601141	1142.051228392370	112.017841040422	611.524174080968	1248.394079529315	77.320560565367	610.932608630713	
21	16.662857142857	990.078421713014	989.245326108211	558.022062438727	984.311030013231	959.854396400877	316.346780389060	1026.604251608921	1442.095212581242	452.573447564318	910.678194446182	1501.353315518583	611.660598482946	900.119791584681	1560.072403628958	426.691969090127	981.958291199224	1506.171375028744	252.202665092553	960.791845738183	1180.758571287193	120.149234544091	1075.904005164448	917.760203703022	165.014924926129	818.667175829843	1181.755295138070	744.739712892598	1039.942258813328	1002.097237315828	687.230678257119	975.311010669491	731.174815679056	322.169658536524	887.134372634607	669.730144582886	284.874650649992	946.611661145400	603.278605913424	348.367197621003	919.104937985742	486.546317660297	357.478323571163	853.320612011358	392.225716213793	381.298471141229	776.380198461922	335.393797044844	306.467560055035	798.941624701359	279.095626008923	396.204473608513	625.713272574576	62.205488023265	400.247606508038	715.014827834894	34.214618699466	343.499100512805	812.727282750472	89.573604142447	389.473541740428	916.359666670612	43.706962077877	398.103549824132	1044.072085721459	768.516489861628	590.425835288401	976.201720071967	679.003608792564	646.522198083785	1067.250453129483	641.294824197054	576.587692416586	1086.884863873392	545.451958984670	613.426528437381	1057.882157040683	438.421805219079	576.417783051396	985.060567824541	364.210211554068	651.588256824960	1053.019423806820	298.102763165667	576.441292986700	954.129624313998	67.392102314294	538.190869512376	1031.092577866745	32.083939583834	611.740707897161	1132.457340835321	106.830952379304	607.349065307062	1238.366401514027	70.776443238998	606.946093361688	
